<svg xmlns="http://www.w3.org/2000/svg" width="640" height="650" viewBox="0 0 640 650" role="img" aria-labelledby="title desc"><title id="title">TURKI HAMITHI</title><desc id="desc">Building connected intelligence. AI systems, creative technology, agents, memory, Linux and NATHAR.</desc><defs><linearGradient id="bg" x2="1" y2="1"><stop stop-color="#071C23"/><stop offset="1" stop-color="#0C3035"/></linearGradient><pattern id="grid" width="40" height="40" patternUnits="userSpaceOnUse"><path d="M40 0H0V40" fill="none" stroke="#A8D3CD" stroke-opacity=".06"/></pattern></defs><rect width="640" height="650" rx="20" fill="url(#bg)"/><rect width="640" height="650" rx="20" fill="url(#grid)"/><g fill="none" stroke="#92B1A3" opacity=".25"><circle cx="525" cy="472" r="164"/><ellipse cx="525" cy="472" rx="190" ry="60" transform="rotate(-38 525 472)"/><ellipse cx="525" cy="472" rx="190" ry="60" transform="rotate(38 525 472)"/></g><circle cx="525" cy="472" r="40" fill="#DDF36B"/><path d="M506 490V454L544 490V454" fill="none" stroke="#16372D" stroke-width="4"/><g font-family="Arial,Helvetica,sans-serif"><path d="M44 64H80" stroke="#DDF36B" stroke-width="4"/><text x="44" y="110" fill="#DDF36B" font-size="23" letter-spacing="2">AI SYSTEMS</text><text x="44" y="143" fill="#A6C0B8" font-size="21" letter-spacing="2">CREATIVE TECHNOLOGY</text><text x="38" y="262" fill="#F2F4E9" font-size="104" font-weight="800" letter-spacing="-5">TURKI</text><text x="37" y="370" fill="#F2F4E9" font-size="104" font-weight="800" letter-spacing="-5">HAMITHI</text><text x="44" y="447" fill="#DDF36B" font-size="31">Building connected</text><text x="44" y="487" fill="#DDF36B" font-size="31">intelligence.</text><text x="44" y="583" fill="#A6C0B8" font-size="22">AGENTS · MEMORY · LINUX</text><text x="44" y="616" fill="#A6C0B8" font-size="22" letter-spacing="3">NATHAR</text></g></svg>